<svg width="20" height="23" viewBox="0 0 20 23" fill="none" xmlns="http://www.w3.org/2000/svg">
<path d="M14.4286 1.40094L15.0766 1.40094L15.0766 0.752906H14.4286V1.40094ZM13.9704 22.5258C14.2235 22.7789 14.6338 22.7789 14.8869 22.5258L19.0109 18.4017C19.264 18.1487 19.264 17.7384 19.0109 17.4853C18.7578 17.2322 18.3475 17.2322 18.0945 17.4853L14.4286 21.1511L10.7628 17.4853C10.5097 17.2322 10.0994 17.2322 9.84634 17.4853C9.59326 17.7384 9.59326 18.1487 9.84634 18.4018L13.9704 22.5258ZM0.799316 2.04897H14.4286V0.752906H0.799316V2.04897ZM13.7806 1.40094L13.7806 22.0676L15.0767 22.0676L15.0766 1.40094L13.7806 1.40094Z" fill="black"/>
</svg>
