<svg width="451" height="178" viewBox="0 0 451 178" fill="none" xmlns="http://www.w3.org/2000/svg">
<path fill-rule="evenodd" clip-rule="evenodd" d="M63.1731 70.003C69.0583 62.0869 78.4825 56.9583 89.1045 56.9583C99.7889 56.9583 109.261 62.1474 115.139 70.1429C114.889 70.4002 114.661 70.6668 114.455 70.9331C113.378 72.3274 112.568 74.1234 111.919 75.9472C110.612 79.6153 109.615 84.4066 108.692 88.8933L108.61 89.2967C107.689 93.7751 106.833 97.9401 105.798 101.032C105.333 102.421 104.892 103.403 104.501 104.032C104.093 103.398 103.63 102.404 103.14 100.995C102.033 97.8144 101.102 93.4882 100.115 88.8689L100.083 88.7176L100.083 88.7175C99.1346 84.2805 98.1285 79.5727 96.8741 75.9691C96.2439 74.1589 95.4706 72.3809 94.4593 70.9995C93.4667 69.6438 91.8145 68.1138 89.3981 68.1138C86.9968 68.1138 85.337 69.6272 84.3301 70.9677C83.2992 72.3401 82.4955 74.1108 81.8334 75.9219C80.5001 79.569 79.41 84.3397 78.3955 88.8325L78.2907 89.2967L78.2907 89.2967C77.2861 93.7473 76.347 97.9082 75.281 101.006C74.874 102.189 74.49 103.089 74.1424 103.732C73.8027 103.092 73.4283 102.198 73.0324 101.025C72.0097 97.9932 71.1138 93.9488 70.1516 89.6048L69.9832 88.8446C68.9862 84.349 67.9046 79.5697 66.5523 75.9112C65.8804 74.0933 65.0586 72.3138 63.9951 70.9349C63.7543 70.6228 63.4806 70.306 63.1731 70.003ZM59.6112 76.0813C59.8915 76.6348 60.188 77.3208 60.4946 78.1503C61.6651 81.317 62.6568 85.6381 63.678 90.2429L63.8767 91.1401C64.8065 95.3418 65.7737 99.7124 66.9129 103.089C67.5188 104.885 68.2505 106.644 69.1916 108.011C70.0815 109.304 71.678 110.974 74.1329 110.974C76.5807 110.974 78.181 109.312 79.077 108.025C80.0261 106.661 80.7698 104.904 81.388 103.107C82.573 99.6635 83.5819 95.1904 84.5475 90.9096L84.5475 90.9093L84.6952 90.255C85.7356 85.6474 86.7371 81.3177 87.8991 78.1395C88.4374 76.667 88.9414 75.6412 89.3801 75.0048C89.796 75.6357 90.271 76.6452 90.7748 78.0924C91.882 81.2731 92.8122 85.5993 93.7994 90.2186L93.8317 90.3699L93.8317 90.3699C94.7799 94.8069 95.786 99.5148 97.0404 103.118C97.6706 104.929 98.4439 106.707 99.4552 108.088C100.448 109.444 102.1 110.974 104.516 110.974C106.945 110.974 108.591 109.43 109.572 108.062C110.568 106.674 111.317 104.89 111.922 103.082C113.085 99.6093 114.01 95.1033 114.891 90.8167L114.891 90.8166L115.018 90.1942C115.967 85.5805 116.878 81.2714 118.003 78.1142C118.247 77.4274 118.487 76.8418 118.716 76.3499C120.44 80.301 121.396 84.6639 121.396 89.25C121.396 107.084 106.939 121.542 89.1045 121.542C71.2703 121.542 56.8128 107.084 56.8128 89.25C56.8128 84.5597 57.8128 80.1029 59.6112 76.0813ZM89.1045 50.5C67.7035 50.5 50.3545 67.849 50.3545 89.25C50.3545 110.651 67.7035 128 89.1045 128C110.506 128 127.854 110.651 127.854 89.25C127.854 67.849 110.506 50.5 89.1045 50.5ZM89.8427 74.4642C89.8427 74.465 89.8352 74.471 89.8201 74.4798C89.8351 74.4678 89.8427 74.4634 89.8427 74.4642ZM88.9501 74.4686C88.9351 74.4594 88.9277 74.4531 88.9277 74.4523C88.9277 74.4515 88.9352 74.4561 88.9501 74.4686ZM104.025 104.645C104.025 104.645 104.032 104.638 104.046 104.629C104.032 104.641 104.025 104.646 104.025 104.645ZM104.964 104.619C104.979 104.628 104.987 104.634 104.987 104.635C104.987 104.636 104.979 104.631 104.964 104.619ZM73.4711 104.703C73.471 104.702 73.4803 104.693 73.4989 104.68C73.4805 104.697 73.4711 104.704 73.4711 104.703ZM74.779 104.686C74.7975 104.699 74.8067 104.708 74.8067 104.709C74.8066 104.71 74.7973 104.704 74.779 104.686Z" fill="black"/>
<path d="M149.251 112.191L139.854 80.0479H148.085L153.658 103.183L160.138 80.0479H169.34L175.821 103.183L181.459 80.0479H189.689L180.228 112.191H171.609L164.739 88.1485L157.87 112.191H149.251Z" fill="black"/>
<path d="M201.766 112.969C199.001 112.969 196.733 112.536 194.962 111.672C193.191 110.765 191.873 109.577 191.009 108.108C190.145 106.639 189.713 105.019 189.713 103.248C189.713 100.267 190.879 97.8475 193.212 95.9898C195.545 94.1321 199.045 93.2032 203.711 93.2032H211.876V92.4255C211.876 90.2222 211.249 88.6021 209.997 87.5652C208.744 86.5283 207.188 86.0099 205.331 86.0099C203.646 86.0099 202.177 86.4203 200.924 87.2412C199.671 88.0189 198.893 89.1853 198.591 90.7406H190.49C190.707 88.4077 191.484 86.3771 192.823 84.649C194.206 82.9209 195.977 81.6032 198.137 80.696C200.298 79.7455 202.717 79.2703 205.395 79.2703C209.975 79.2703 213.582 80.4151 216.218 82.7049C218.853 84.9946 220.171 88.2349 220.171 92.4255V112.191H213.107L212.33 107.007C211.379 108.735 210.04 110.16 208.312 111.284C206.627 112.407 204.445 112.969 201.766 112.969ZM203.646 106.488C206.022 106.488 207.858 105.71 209.154 104.155C210.493 102.6 211.336 100.677 211.682 98.3875H204.618C202.414 98.3875 200.838 98.798 199.887 99.6188C198.937 100.396 198.461 101.369 198.461 102.535C198.461 103.788 198.937 104.76 199.887 105.451C200.838 106.142 202.09 106.488 203.646 106.488Z" fill="black"/>
<path d="M233.229 112.191L221.435 80.0479H230.118L238.284 104.35L246.449 80.0479H255.133L243.274 112.191H233.229Z" fill="black"/>
<path d="M271.808 112.969C268.568 112.969 265.695 112.277 263.189 110.895C260.684 109.512 258.718 107.568 257.292 105.062C255.866 102.557 255.154 99.662 255.154 96.3786C255.154 93.052 255.845 90.0926 257.227 87.5004C258.653 84.9082 260.597 82.8993 263.06 81.4736C265.565 80.0047 268.503 79.2703 271.873 79.2703C275.027 79.2703 277.814 79.9615 280.233 81.344C282.652 82.7265 284.532 84.6274 285.871 87.0468C287.253 89.4229 287.945 92.0799 287.945 95.0177C287.945 95.493 287.923 95.9898 287.88 96.5082C287.88 97.0267 287.858 97.5667 287.815 98.1283H263.384C263.557 100.634 264.421 102.6 265.976 104.026C267.574 105.451 269.497 106.164 271.744 106.164C273.428 106.164 274.833 105.797 275.956 105.062C277.122 104.285 277.986 103.291 278.548 102.081H286.973C286.368 104.112 285.352 105.97 283.927 107.655C282.544 109.296 280.816 110.592 278.742 111.543C276.712 112.493 274.4 112.969 271.808 112.969ZM271.873 86.0099C269.843 86.0099 268.05 86.5932 266.494 87.7596C264.939 88.8829 263.945 90.611 263.513 92.944H279.52C279.39 90.827 278.613 89.1421 277.187 87.8892C275.761 86.6364 273.99 86.0099 271.873 86.0099Z" fill="black"/>
<path d="M292.329 112.191V65.5317H300.624V112.191H292.329Z" fill="black"/>
<path d="M322.125 112.969C318.885 112.969 316.012 112.277 313.506 110.895C311.001 109.512 309.035 107.568 307.609 105.062C306.183 102.557 305.471 99.662 305.471 96.3786C305.471 93.052 306.162 90.0926 307.544 87.5004C308.97 84.9082 310.914 82.8993 313.377 81.4736C315.883 80.0047 318.82 79.2703 322.19 79.2703C325.344 79.2703 328.131 79.9615 330.55 81.344C332.969 82.7265 334.849 84.6274 336.188 87.0468C337.57 89.4229 338.262 92.0799 338.262 95.0177C338.262 95.493 338.24 95.9898 338.197 96.5082C338.197 97.0267 338.175 97.5667 338.132 98.1283H313.701C313.874 100.634 314.738 102.6 316.293 104.026C317.891 105.451 319.814 106.164 322.061 106.164C323.745 106.164 325.15 105.797 326.273 105.062C327.439 104.285 328.303 103.291 328.865 102.081H337.29C336.685 104.112 335.669 105.97 334.244 107.655C332.861 109.296 331.133 110.592 329.059 111.543C327.029 112.493 324.718 112.969 322.125 112.969ZM322.19 86.0099C320.16 86.0099 318.367 86.5932 316.811 87.7596C315.256 88.8829 314.262 90.611 313.83 92.944H329.837C329.707 90.827 328.93 89.1421 327.504 87.8892C326.078 86.6364 324.307 86.0099 322.19 86.0099Z" fill="black"/>
<path d="M355.931 112.969C353.08 112.969 350.574 112.515 348.414 111.608C346.253 110.657 344.525 109.361 343.229 107.719C341.933 106.078 341.156 104.177 340.896 102.017H349.256C349.515 103.269 350.207 104.35 351.33 105.257C352.496 106.121 353.987 106.553 355.801 106.553C357.616 106.553 358.934 106.186 359.754 105.451C360.618 104.717 361.05 103.874 361.05 102.924C361.05 101.541 360.446 100.612 359.236 100.137C358.026 99.6188 356.341 99.122 354.181 98.6468C352.799 98.3443 351.395 97.9771 349.969 97.5451C348.543 97.1131 347.226 96.573 346.016 95.925C344.849 95.2337 343.899 94.3697 343.164 93.3328C342.43 92.2527 342.063 90.935 342.063 89.3797C342.063 86.5283 343.186 84.1306 345.433 82.1865C347.722 80.2423 350.919 79.2703 355.024 79.2703C358.826 79.2703 361.85 80.1559 364.096 81.9272C366.386 83.6986 367.747 86.1395 368.179 89.2501H360.338C359.862 86.874 358.069 85.6859 354.959 85.6859C353.404 85.6859 352.194 85.9883 351.33 86.5932C350.509 87.198 350.099 87.954 350.099 88.8613C350.099 89.8118 350.725 90.5678 351.978 91.1295C353.231 91.6911 354.894 92.2095 356.968 92.6848C359.214 93.2032 361.266 93.7864 363.124 94.4345C365.025 95.0393 366.537 95.9682 367.661 97.2211C368.784 98.4307 369.345 100.18 369.345 102.47C369.389 104.458 368.87 106.25 367.79 107.849C366.71 109.447 365.155 110.7 363.124 111.608C361.094 112.515 358.696 112.969 355.931 112.969Z" fill="black"/>
<path d="M387.386 112.969C384.535 112.969 382.029 112.515 379.869 111.608C377.709 110.657 375.981 109.361 374.685 107.719C373.389 106.078 372.611 104.177 372.352 102.017H380.712C380.971 103.269 381.662 104.35 382.785 105.257C383.952 106.121 385.442 106.553 387.257 106.553C389.071 106.553 390.389 106.186 391.21 105.451C392.074 104.717 392.506 103.874 392.506 102.924C392.506 101.541 391.901 100.612 390.691 100.137C389.482 99.6188 387.797 99.122 385.637 98.6468C384.254 98.3443 382.85 97.9771 381.424 97.5451C379.999 97.1131 378.681 96.573 377.471 95.925C376.305 95.2337 375.354 94.3697 374.62 93.3328C373.885 92.2527 373.518 90.935 373.518 89.3797C373.518 86.5283 374.642 84.1306 376.888 82.1865C379.178 80.2423 382.375 79.2703 386.479 79.2703C390.281 79.2703 393.305 80.1559 395.552 81.9272C397.841 83.6986 399.202 86.1395 399.634 89.2501H391.793C391.318 86.874 389.525 85.6859 386.414 85.6859C384.859 85.6859 383.649 85.9883 382.785 86.5932C381.964 87.198 381.554 87.954 381.554 88.8613C381.554 89.8118 382.18 90.5678 383.433 91.1295C384.686 91.6911 386.349 92.2095 388.423 92.6848C390.67 93.2032 392.722 93.7864 394.58 94.4345C396.481 95.0393 397.993 95.9682 399.116 97.2211C400.239 98.4307 400.801 100.18 400.801 102.47C400.844 104.458 400.326 106.25 399.246 107.849C398.165 109.447 396.61 110.7 394.58 111.608C392.549 112.515 390.151 112.969 387.386 112.969Z" fill="black"/>
</svg>
