<svg width="51" height="16" viewBox="0 0 51 16" fill="none" xmlns="http://www.w3.org/2000/svg">
<path d="M0.950078 15.0497V0.0896825H2.42408V13.8397H10.3001V15.0497H0.950078ZM23.8413 9.35168C23.8413 13.0257 21.6193 15.2917 18.0333 15.2917C14.4253 15.2917 12.2033 13.0257 12.2033 9.35168V0.0896825H13.6993V9.35168C13.6993 12.2997 15.3273 14.0817 18.0333 14.0817C20.7173 14.0817 22.3453 12.2777 22.3453 9.35168V0.0896825H23.8413V9.35168ZM27.3759 15.0497V0.0896825H28.8499V7.34968L36.2859 0.0896825H38.1779L30.5879 7.43768L38.3099 15.0497H36.2859L28.8499 7.74568V15.0497H27.3759ZM40.6102 15.0497V0.0896825H50.5322V1.29968H42.0842V6.66768H49.7402V7.89968H42.0842V13.8397H50.5322V15.0497H40.6102Z" fill="white"/>
</svg>
