<svg width="51" height="16" viewBox="0 0 51 16" fill="none" xmlns="http://www.w3.org/2000/svg">
<path d="M0.87 15.0041V0.0440892H2.344V13.7941H10.22V15.0041H0.87ZM23.7612 9.30609C23.7612 12.9801 21.5392 15.2461 17.9532 15.2461C14.3452 15.2461 12.1232 12.9801 12.1232 9.30609V0.0440892H13.6192V9.30609C13.6192 12.2541 15.2472 14.0361 17.9532 14.0361C20.6372 14.0361 22.2652 12.2321 22.2652 9.30609V0.0440892H23.7612V9.30609ZM27.2958 15.0041V0.0440892H28.7698V7.30409L36.2058 0.0440892H38.0978L30.5078 7.39209L38.2298 15.0041H36.2058L28.7698 7.70009V15.0041H27.2958ZM40.5302 15.0041V0.0440892H50.4522V1.25409H42.0042V6.62209H49.6602V7.85409H42.0042V13.7941H50.4522V15.0041H40.5302Z" fill="black"/>
</svg>
