<svg width="13" height="14" viewBox="0 0 13 14" fill="none" xmlns="http://www.w3.org/2000/svg">
<path d="M12.4792 1.304V10.8051C12.4792 10.9505 12.4238 11.0899 12.3254 11.1927C12.2269 11.2955 12.0933 11.3532 11.9541 11.3532C11.8148 11.3532 11.6812 11.2955 11.5828 11.1927C11.4843 11.0899 11.429 10.9505 11.429 10.8051V2.62684L1.12328 13.385C1.02374 13.4818 0.892091 13.5345 0.756058 13.532C0.620025 13.5295 0.490234 13.472 0.394029 13.3716C0.297824 13.2711 0.242716 13.1356 0.240316 12.9936C0.237916 12.8516 0.28841 12.7142 0.381162 12.6103L10.6869 1.85214H2.85257C2.71331 1.85214 2.57975 1.79439 2.48128 1.69159C2.3828 1.5888 2.32748 1.44937 2.32748 1.304C2.32748 1.15862 2.3828 1.0192 2.48128 0.916406C2.57975 0.81361 2.71331 0.755859 2.85257 0.755859H11.9541C12.0933 0.755859 12.2269 0.81361 12.3254 0.916406C12.4238 1.0192 12.4792 1.15862 12.4792 1.304Z" fill="black"/>
</svg>
