<svg width="21" height="20" viewBox="0 0 21 20" fill="none" xmlns="http://www.w3.org/2000/svg">
<path d="M20.0211 18.589C20.0947 18.6576 20.1538 18.7404 20.1948 18.8324C20.2358 18.9244 20.2579 19.0238 20.2596 19.1245C20.2614 19.2252 20.2429 19.3252 20.2052 19.4186C20.1675 19.512 20.1113 19.5968 20.0401 19.668C19.9689 19.7392 19.884 19.7954 19.7907 19.8331C19.6973 19.8708 19.5972 19.8894 19.4965 19.8876C19.3958 19.8858 19.2965 19.8638 19.2045 19.8228C19.1125 19.7818 19.0297 19.7227 18.9611 19.649L10.4911 11.1802L2.02106 19.649C1.87888 19.7815 1.69084 19.8536 1.49653 19.8502C1.30223 19.8467 1.11685 19.768 0.979435 19.6306C0.842022 19.4932 0.763311 19.3078 0.759882 19.1135C0.756454 18.9192 0.828577 18.7312 0.961057 18.589L9.42981 10.119L0.961057 1.64899C0.828577 1.50681 0.756454 1.31877 0.759882 1.12446C0.763311 0.930163 0.842022 0.744778 0.979435 0.607365C1.11685 0.469952 1.30223 0.39124 1.49653 0.387812C1.69084 0.384384 1.87888 0.456507 2.02106 0.588987L10.4911 9.05774L18.9611 0.588987C19.1032 0.456507 19.2913 0.384384 19.4856 0.387812C19.6799 0.39124 19.8653 0.469952 20.0027 0.607365C20.1401 0.744778 20.2188 0.930163 20.2222 1.12446C20.2257 1.31877 20.1535 1.50681 20.0211 1.64899L11.5523 10.119L20.0211 18.589Z" fill="white"/>
</svg>
